<svg xmlns="http://www.w3.org/2000/svg" width="108" height="108" viewBox="0 0 108 108">
  <title>Study Tracker — approved left ink concept</title>
  <defs><clipPath id="ink"><path d="M68.2,31.8 C63.5,27.1 57.2,26.4 51.6,28.4 C46.4,30.2 44,34.4 39.5,36.5 C33,39.1 29.2,43 28.1,49.2 C26.8,55.4 28.8,62.6 31.2,67.4 C33.9,73.2 39.8,77.6 45.8,79 C52.1,80.8 58.1,79.4 63,75.7 C67.1,72.7 71.6,71.3 75.7,68.4 C80.7,64.8 81.7,60.6 81,55.9 C80.4,51 77,47.6 74.7,43.6 C72.4,39.6 72,35.3 68.2,31.8 Z"/></clipPath></defs>
  <rect width="108" height="108" fill="#FCFAF6"/>
  <g clip-path="url(#ink)">
    <path d="M68.2,31.8 C63.5,27.1 57.2,26.4 51.6,28.4 C46.4,30.2 44,34.4 39.5,36.5 C33,39.1 29.2,43 28.1,49.2 C26.8,55.4 28.8,62.6 31.2,67.4 C33.9,73.2 39.8,77.6 45.8,79 C52.1,80.8 58.1,79.4 63,75.7 C67.1,72.7 71.6,71.3 75.7,68.4 C80.7,64.8 81.7,60.6 81,55.9 C80.4,51 77,47.6 74.7,43.6 C72.4,39.6 72,35.3 68.2,31.8 Z" fill="#9D95CC"/>
    <path d="M0,0 H108 V30 C89,34 84,40 77.7,46.4 C70.2,55 63,57.2 55,63 C49,67.5 44,72.4 41.6,77.5 L0,108 Z" fill="#DC9475"/>
    <path d="M0,0 H108 L68.2,31.8 C61,41 51,46 42,52 C36,56 31,61 29.8,65 L0,85 Z" fill="#78AC80"/>
  </g>
</svg>
